<svg
  fill="none"
  height="1028"
  viewBox="0 0 550 1028"
  width="550"
  xmlns="http://www.w3.org/2000/svg"
><g clip-rule="evenodd" id="f" fill-rule="evenodd"><path
      d="m457.112 0c28.467.00000912 63.746 5.55935 85.5 25.5-28 18.9999-49.891 42.7386-58 73-15.541 58 2.342 83.001-30.905 140.586-16.539 28.646-42.964 57.134-73.095 71.914 31.5 25 61 58.5 74.748 109.184 12.248-4.317 20.569-7.049 30-9 12-2.483 22 1.285 27.939 10.191 7.542 11.308 10.468 25.284 13.438 38.375 2.157 9.511 4.232 19.033 6 28.625 2.686 14.569 12.123 25.624 15.875 37.124 1.164 3.568 1.097 11.117-2.5 12.5s-7.53-1.924-12-5.5c2.5 5 6.9 16.24 0 19-5 2-10.752-6.815-13.252-10.315.752 5.815 2.252 12.815-3.748 14.315-1.601.4-6.349-.834-10.5-10-12-26.5-18-45-25-68-19.253 18.183-22.008 22.034-40.253 34.501-31 21.183-52 10.683-63-12.317-9.759-20.405-16.247-44.184-23.247-71.184h-2c0 51 9 78 34.5 109-68.5 8-162 8-225.5-.5 28.935-31.5 36.249-71.111 35.5-108.5h-1.5c-9 35-17.135 61.5-32.5 82-14.616 19.5-37.827 13.16-54 3.001-16.2238-10.191-28.0001-23.001-42.0001-36.001-6.9999 21-15.7891 47.274-23.5 64-2.1497 4.663-7.2505 16.2-14 13.5-4.1522-1.661-2.5-7-2.5-14.5-2.5 4-7.5 13.364-14 11-5.09826-1.854-2.4112-12.123 0-18-6.49998 5.5-9.99998 5.286-11.49998 4-3.4999-3-2.038618-11.363 0-17.5 1.88454-5.673 9.79628-17.123 11.49998-22.874 3-10.126 6.5-29.297 8-36.126 3.7341-17 7.5486-31.083 16-42.5 5.2965-7.155 11.3329-8.964 22-7.499 11.1545 1.531 22.3549 5.398 33 9 26.0001-79.501 85.0001-133.5 157.5001-141.999-15.5-177.501 102.5-278.001 207-278.001zm-193 229.832c-.5 16.167-.5 30.167 0 45.667 60-8.5 85 15 100 27.5 8.5-4.5 22.502-12.5 30.5-20-24-43.875-77.5-70-130.5-53.167zm24.252-100.016c-6.252 12.683-14.136 33.909-16.752 48.183 70-17.5 129 15.5 157.752 71.817 11.136-16.316 17.636-28.316 23.748-42.317-28.612-58.999-99.318-93.187-164.748-77.683zm39.748-57.3166c77.388 0 117.888 44.5006 135 69.9996 1.362-16.45 1.888-30.499 7.252-48.6826-16.864-32.3164-48.364-55.8164-86.864-60.8164-16.252 6.183-38.888 22.9994-55.388 39.4994z"
    /><path
      d="m454.433 515.499c12.625 1.403 30.058 8.053 36.764 17.496.904 1.272 1.368 2.785 1.514 4.339.761 8.132.224 21.32-.092 27.402-.112 2.154-.725 4.249-1.87 6.076-2.081 3.321-4.449 6.408-7.816 8.688l-8 78.499c11.556-.963 20.794-1.925 32.178-5.121.797-.224 1.369-.923 1.433-1.748.849-10.945.969-22.091.902-33.816-.006-1.098-.899-1.986-1.998-1.986h-17.195l2.18-24.828c10.394-.113 18.634-.001 28.634.999 9 .9 15.866 8 15.866 17l-1.5 57c-.678 13-15 16.5-23.5 17.5l-40 5.5-31 275.001c-10.626 84.5-321.432 85-334.5 0l-31.1803-274.172c-17.2614-2.121-31.3709-2.158-48.6855-9.329-8.7211-3.612-11.9131-9.768-12.5-15-1.9999-17.829-2.1537-37.927-1.8145-57.671.0001-6.329 5.3145-13.829 11.8145-14.829 11.1493-1.715 15.5002-1.5 30.1855-1.5l2.6807 24c-4.2867.252-17.4354.001-17.5 0 .3014 12.181.5 26 2 37.5.2959 2.269 32 5.5 32 5.5l-7.8672-77.194c-.0864-.848-.4418-1.647-1.0137-2.279l-6.5517-7.241c-1.3308-1.471-2.0674-3.384-2.0674-5.368v-26.939c0-2.253.733-4.468 2.2558-6.127 9.2165-10.044 21.1418-14.126 36.2442-17.352l13.4996 11c-10.5489 2.673-20.9449 5.677-30.652 10.776-.8351.439-1.3476 1.311-1.3476 2.254.0001.912.4787 1.759 1.2705 2.211 16.37 9.344 35.6201 12.963 53.8511 16.278 94.878 13.981 182.378 13.481 285.378 0 22.047-2.886 49.437-12.733 55.572-15.969.61-.322.983-.937 1.081-1.62.204-1.43-.584-2.817-1.922-3.362-9.652-3.925-20.92-7.992-30.731-10.568zm-231.073 143.775c-10.479-10.479-27.47-10.479-37.949 0-10.479 10.48-10.479 27.47 0 37.95 7.721 7.72 18.975 9.75 28.557 6.094l39.698 39.699c-3.657 9.581-1.624 20.836 6.096 28.557 2.469 2.469 5.299 4.355 8.32 5.66v97.588c-3.021 1.306-5.851 3.192-8.32 5.66-10.479 10.48-10.479 27.47 0 37.95 10.48 10.479 27.469 10.479 37.949 0 10.479-10.48 10.479-27.47 0-37.95-2.002-2.002-4.243-3.62-6.629-4.857v-95.192l36.013 36.012c-3.657 9.582-1.625 20.837 6.096 28.558 10.48 10.479 27.47 10.479 37.949 0 10.48-10.479 10.48-27.47 0-37.949-7.415-7.415-18.09-9.582-27.412-6.503l-39.514-39.515c3.078-9.321.912-19.996-6.503-27.411s-18.09-9.582-27.411-6.503l-40.438-40.437c3.078-9.322.913-19.996-6.502-27.411z"
    /></g>
<style>
#f {
fill: black;
}

@media (prefers-color-scheme: dark) {
  #f {
    fill: white;
  }
}
</style></svg>
